<svg xmlns="http://www.w3.org/2000/svg" xmlns:xlink="http://www.w3.org/1999/xlink" version="1.1" x="0px" y="0px" viewBox="0 0 53 66.25" style="enable-background:new 0 0 53 53;" xml:space="preserve"><g><path d="M49.8225327,38.4531288c-0.470459-0.1749878-0.9801636,0.0413208-1.2131958,0.4738159l-1.312561-0.4867554   c0.2092285-1.0211182,0.1696777-2.0637817-0.1157837-3.0587158l1.2661743-0.5813599   c0.2728996,0.4290428,0.7988586,0.5865479,1.2518311,0.3781128c0.5019531-0.2304688,0.722168-0.8237305,0.4916992-1.3256836   l-0.3399658-0.7406616c0.0093384-0.0252686,0.0263672-0.0454102,0.0338097-0.0718384   c0.2670937-0.9477539,0.4023476-1.9023438,0.4023476-2.8369141V12.6240273c0-0.5522461-0.4477539-1-1-1   c-4.4794922,0-8.1240234-3.6445308-8.1240234-8.1240234c0-0.5522461-0.4477539-1-1-1H19.8010483c-0.5522461,0-1,0.4477539-1,1   c0,4.4794922-3.644043,8.1240234-8.1235352,8.1240234c-0.5522461,0-1,0.4477539-1,1v9.0496216l-0.8818359,0.4098511   c-0.5009766,0.2324219-0.7182617,0.8271484-0.4853516,1.328125c0.2341309,0.5040226,0.8314829,0.7167625,1.328125,0.4853516   l0.1942139-0.090271l1.1289063,2.427124c-1.381897,0.8410645-2.491272,2.046936-3.224792,3.5088501l-2.5125122-0.9173584   l0.0733643-0.2008057c0.1894531-0.519043-0.0776367-1.0932617-0.5961914-1.2827148   c-0.5200195-0.1879883-1.0927734,0.078125-1.2827148,0.5961914l-0.8330078,2.2807617   c-0.1894531,0.519043,0.0776367,1.0932617,0.5961914,1.2827148c0.5285244,0.1913624,1.0953178-0.084549,1.2827148-0.5961914   l0.0734863-0.2012939l2.5134277,0.9177246c-0.37677,1.5812988-0.305603,3.2191162,0.206604,4.7597046l-2.4303589,1.1299438   l-0.09021-0.1939697c-0.2324219-0.5009766-0.8271484-0.7182617-1.328125-0.4853516s-0.7182617,0.8276367-0.4853516,1.328125   l1.0239258,2.2021484c0.2341309,0.5040207,0.8314824,0.7167625,1.328125,0.4853516   c0.5009766-0.2328873,0.7182617-0.8276367,0.4853516-1.328125l-0.0905762-0.1948853l2.4270015-1.128418   c0.8406372,1.3827515,2.0463257,2.4924316,3.508667,3.2258911l-0.9171753,2.5111084l-0.2008667-0.0733643   c-0.5205078-0.1884766-1.0932617,0.078125-1.2827148,0.5961914c-0.1894531,0.519043,0.0776367,1.0932617,0.5961914,1.2827148   l2.2807617,0.8330078c0.5285254,0.1913643,1.0953178-0.084549,1.2827148-0.5961914   c0.1894531-0.519043-0.0776367-1.0932617-0.5961914-1.2827148l-0.2008667-0.0733643l0.9179688-2.5134277   c0.6674805,0.1591187,1.3443604,0.2454834,2.0206909,0.2454834c0.9265747,0,1.8500977-0.1506348,2.7410278-0.4468994   l1.1225586,2.4143677l-0.989563,0.5222778c-0.4882813,0.2578125-0.675293,0.862793-0.4174805,1.3510742   c0.2572155,0.4870987,0.8618851,0.6757088,1.3510742,0.4174805l1.8414917-0.9719238   c4.3337402,2.9341431,8.2393188,4.6984863,8.4094849,4.7746582c0.2623825,0.117382,0.5597992,0.1155052,0.8168945,0.0004883   c0.1411743-0.0632324,3.4170532-1.5395508,7.3027344-4.0327759l0.6601563,0.2446899   c0.5239449,0.1939697,1.0950241-0.0766106,1.2851563-0.5898438c0.175415-0.4735718-0.0418701-0.9806519-0.473877-1.2133789   l0.4886475-1.3184204c0.4265747,0.0863647,0.8563232,0.1411743,1.2869873,0.1411743   c0.5961914,0,1.1890869-0.0914307,1.7677002-0.2557983l0.5772095,1.2578125l-0.4660034,0.243103   c-0.4897461,0.2553711-0.6796875,0.859375-0.4243164,1.3491211c0.2580643,0.4942703,0.8656158,0.6772766,1.3491211,0.4243164   l2.3427734-1.222168c0.4897461-0.2553711,0.6796875-0.859375,0.4243164-1.3491211   c-0.2558594-0.4897461-0.8603516-0.6801758-1.3491211-0.4243164l-0.1016235,0.0530396l-0.5385742-1.173584   c0.8630981-0.567749,1.5671387-1.328186,2.0739746-2.2367554l1.3257446,0.4915771   c-0.1054688,0.479187,0.1375122,0.9749756,0.611084,1.1503906c0.5186462,0.1928291,1.0935059-0.0725098,1.2851563-0.5898438   l0.6025391-1.6240234C50.6047592,39.2207069,50.3405991,38.6450233,49.8225327,38.4531288z M13.2317123,39.9538612   c-0.0073853-0.0028687-0.012085-0.0092163-0.0195313-0.0119629c-0.0074463-0.0026855-0.0151367-0.0009155-0.022583-0.003418   c-3.5557203-1.3263626-5.1932425-5.1929855-3.9840088-8.5723267c0.0026855-0.006958,0.0079346-0.0119629,0.010498-0.0189819   c0.0021362-0.0057983,0.0006714-0.0117798,0.0026855-0.0176392c1.0426683-2.8012562,3.6537819-4.3861694,6.298584-4.3861694   c4.6034298,0,7.8790569,4.5862617,6.3015747,8.9819946c-0.0030518,0.0076904-0.0096436,0.0126343-0.0125122,0.0204468   c-0.0030518,0.0083008-0.0010376,0.0167847-0.0038452,0.0251465   C20.4746857,39.5278244,16.6120548,41.1595764,13.2317123,39.9538612z M29.9748764,48.3969765   c-1.0261841-0.4884033-3.8552856-1.894104-6.9840088-3.9404907c0.149231-0.2823486,0.1775513-0.6230469,0.0172119-0.9266968   c-0.2573242-0.4882813-0.862793-0.6762695-1.3510742-0.4174805l-0.515564,0.2720947l-1.0800781-2.3230591   c1.383728-0.8417969,2.4939575-2.0485229,3.2265625-3.5094604l2.5099487,0.916748l-0.0734863,0.2012939   c-0.1894531,0.5185547,0.0776367,1.0927734,0.5966797,1.2822266c0.5240307,0.1905556,1.0937309-0.0814171,1.2822266-0.5966797   l0.8330078-2.28125c0.1894531-0.5185547-0.0776367-1.0927734-0.5966797-1.2822266   c-0.5166016-0.1879883-1.0922852,0.078125-1.2822266,0.5966797l-0.0733643,0.2008667l-2.5094604-0.9165039   c0.381958-1.5880127,0.3113403-3.2268677-0.2053223-4.7634888l2.4250488-1.1274414l0.0901489,0.1939697   c0.2341309,0.5040226,0.8314819,0.7167625,1.328125,0.4853516c0.5009766-0.2329102,0.7182617-0.8276367,0.4853516-1.328125   l-1.0234375-2.2016602c-0.2329102-0.5014648-0.828125-0.71875-1.328125-0.4853516   c-0.5009766,0.2329102-0.7182617,0.8276367-0.4853516,1.328125l0.090332,0.1942749l-2.4295044,1.1295776   c-0.8467407-1.3810425-2.0527954-2.4887695-3.5083618-3.2215576l0.9191284-2.5164795l0.2008667,0.0733643   c0.5285244,0.1913624,1.0953178-0.084549,1.2827148-0.5961914c0.1894531-0.519043-0.0776367-1.0932617-0.5961914-1.2827148   l-2.2807617-0.8330078c-0.519043-0.1875-1.0927734,0.0776367-1.2827148,0.5961914   c-0.1894531,0.519043,0.0776367,1.0932617,0.5961914,1.2827148l0.2008667,0.0733643l-0.9181519,2.513855   c-1.5783081-0.3786621-3.2159424-0.3081665-4.7589722,0.2053223l-1.1299438-2.4293823l0.1940918-0.09021   c0.5009766-0.2324219,0.7182617-0.8271484,0.4853516-1.328125c-0.1292725-0.2786255-0.3734741-0.4567871-0.6484375-0.53125   v-7.4389648c4.7856445-0.4716797,8.6035156-4.2890625,9.074707-9.0751953h18.4594727   c0.4716797,4.7861323,4.2890625,8.6035156,9.0751953,9.0751953v16.6279297c0,0.5289307-0.0741577,1.0689087-0.1821289,1.6108398   c-0.4293823,0.22229-0.6218872,0.7104492-0.4854126,1.1654663l-1.2887573,0.5917358   c-0.5700073-0.8605957-1.3289185-1.5641479-2.2346802-2.0714111l0.4918213-1.3271484   c0.0715332,0.0159302,0.1429443,0.0388184,0.2142944,0.0388184c0.40625,0,0.7880859-0.2495117,0.9375-0.652832   c0.1918945-0.5180664-0.0722656-1.0932617-0.5898438-1.2851563l-1.6245117-0.6020508   c-0.5185547-0.190918-1.0932617,0.0717773-1.2851563,0.5898438c-0.175415,0.4735107,0.0418701,0.9807129,0.4737549,1.2133179   l-0.4873047,1.3148804c-1.0152588-0.2070313-2.0570679-0.1671143-3.0559692,0.1173096l-0.5861206-1.2767334   c0.413269-0.2645874,0.5918579-0.786499,0.3812256-1.2452393c-0.2304688-0.5029297-0.8271484-0.7226563-1.3256836-0.4916992   l-1.5742188,0.7226563c-0.5019531,0.2304688-0.722168,0.8237305-0.4916992,1.3256836   c0.168457,0.3671875,0.5307617,0.5830078,0.9091797,0.5830078c0.0949097,0,0.1889648-0.0339355,0.2830811-0.0620728   l0.5912476,1.2879639c-0.8615723,0.5671997-1.5651855,1.3272095-2.0728149,2.2366333l-1.3276367-0.4923096   c0.1054688-0.479187-0.1375122-0.9749756-0.611084-1.1503906c-0.5146484-0.1923828-1.0932617,0.0717773-1.2851563,0.5898438   l-0.6025391,1.6240234c-0.1923828,0.5175781,0.0717773,1.0932617,0.5898438,1.2851563   c0.4804153,0.1786156,0.9855804-0.0355377,1.2189941-0.4716797l1.3097534,0.4857178   c-0.2061157,1.0171509-0.1659546,2.0588989,0.1173096,3.055542l-1.2770386,0.5863647   c-0.2642212-0.4133301-0.7883911-0.5913086-1.2454834-0.3815308c-0.5019531,0.2299805-0.722168,0.8237305-0.4916992,1.3256836   l0.7226563,1.574707c0.2311401,0.504612,0.8275108,0.720932,1.3256836,0.4916992   c0.4588013-0.2102051,0.6640015-0.7226563,0.5230103-1.1928101l1.2862549-0.5905762   c0.5669556,0.8614502,1.3266602,1.5649414,2.236145,2.072876l-0.4920654,1.3276367   c-0.4789429-0.1046753-0.9750977,0.1369019-1.1505127,0.6109009c-0.0349731,0.0944214-0.0390015,0.1905518-0.0449219,0.2861328   C33.3208237,46.7570839,30.9056015,47.9547157,29.9748764,48.3969765z M39.3833847,41.3688393   c-0.0040283-0.0015259-0.0065308-0.0050049-0.0105591-0.0065308c-0.0036621-0.0013428-0.0073853-0.0004272-0.0110474-0.001709   c-1.1279907-0.4262085-2.019043-1.255127-2.5099487-2.3391113c-0.4971924-1.0884399-0.5437622-2.3074341-0.1356812-3.427002   c0.0012207-0.0031738,0.0036621-0.0053711,0.0048218-0.0085449c0.0009766-0.0026855,0.0003052-0.0053711,0.0012817-0.0080566   c0.4252319-1.1295166,1.2546997-2.0219116,2.3400269-2.513916c0.6010742-0.2739258,1.2397461-0.4116211,1.8789063-0.4116211   c0.5234375,0,1.046875,0.0922852,1.5493164,0.277832c0.001709,0.0006104,0.0031128,0.001709,0.0048218,0.0023804   c0.0009766,0.0003662,0.0015259,0.0011597,0.0025024,0.0015259c0.0003662,0.0001221,0.0006714,0.000061,0.0010376,0.0001831   c1.1271973,0.425415,2.0231934,1.2565918,2.5238647,2.34552c0.4987793,1.0768433,0.5454712,2.2904663,0.1337891,3.4195557   c-0.0016479,0.0042114-0.005249,0.0068359-0.0068359,0.0111084c-0.00177,0.0048218-0.0006104,0.0097656-0.0023193,0.0145874   c-0.4260864,1.1264648-1.2542114,2.0163574-2.3375244,2.5073853C41.720787,41.7299843,40.5022812,41.7775307,39.3833847,41.3688393   z"/><path d="M12.8581772,29.6054726c-0.5522461,0-1.050293,0.4975586-1.050293,1.0498047s0.4980469,1.0498047,1.050293,1.0498047   s1.0498047-0.4975586,1.0498047-1.0498047S13.4104233,29.6054726,12.8581772,29.6054726z"/><path d="M18.5066147,30.1250038c0-0.5522461-0.4975586-1.050293-1.0498047-1.050293s-1.050293,0.4980469-1.050293,1.050293   s0.4980469,1.0498047,1.050293,1.0498047S18.5066147,30.6772499,18.5066147,30.1250038z"/><path d="M12.0891342,33.8559608c-0.5522461,0-1.0498047,0.4975586-1.0498047,1.0498047s0.4975586,1.050293,1.0498047,1.050293   s1.0498047-0.4980469,1.0498047-1.050293S12.6413803,33.8559608,12.0891342,33.8559608z"/><path d="M19.9831772,35.2382851c0-0.5522461-0.4980469-1.050293-1.050293-1.050293s-1.0498047,0.4980469-1.0498047,1.050293   s0.4975586,1.0498047,1.0498047,1.0498047S19.9831772,35.7905312,19.9831772,35.2382851z"/><path d="M15.6140366,31.7690468c-0.5522461,0-1.050293,0.4975586-1.050293,1.0498047s0.4980469,1.050293,1.050293,1.050293   s1.0498047-0.4980469,1.0498047-1.050293S16.1662827,31.7690468,15.6140366,31.7690468z"/><circle cx="40.2429428" cy="35.2880898" r="1.0498047"/><path d="M30.7574081,23.2697182l0.4547119-1.3241577c0.3770752,0.0670166,0.7562866,0.1062012,1.1353149,0.1062012   c0.6485596,0,1.2923584-0.1068726,1.9169922-0.3009033l0.6079712,1.2438965l-0.460022,0.2542725   c-0.4833984,0.2670898-0.6586914,0.8754883-0.3911133,1.3588867c0.2683372,0.4863186,0.8795853,0.6567135,1.3588867,0.3911133   l2.3125-1.2783203c0.4833984-0.2670898,0.6586914-0.8754883,0.3911133-1.3588867   c-0.2670898-0.4833984-0.875-0.6586914-1.3588867-0.3911133l-0.0999756,0.0552979l-0.5673828-1.1608276   c0.8485718-0.5884399,1.5338745-1.3655396,2.0188599-2.2857666l1.3376465,0.4593506   c-0.0933838,0.4818726,0.161438,0.9713135,0.6389771,1.1350708c0.5177841,0.1788712,1.0896912-0.0947456,1.2705078-0.6210938   l0.5625-1.6381836c0.1791992-0.5224609-0.0986328-1.0913086-0.6210938-1.2705078   c-0.475708-0.1642456-0.9789429,0.0657959-1.201355,0.5031738l-1.3234253-0.4544678   c0.1841431-1.0255737,0.1191406-2.0671387-0.1904297-3.0551758l1.2512817-0.6116943   c0.2806091,0.4183731,0.8080101,0.5688076,1.2612915,0.3476563c0.496582-0.2426758,0.7021484-0.8413086,0.4594727-1.3374023   l-0.7607422-1.5561523c-0.2421875-0.4956055-0.8413086-0.7016602-1.3374023-0.4594727   c-0.4538574,0.2218018-0.6463623,0.7388306-0.4940186,1.2052612l-1.2739258,0.6228027   c-0.5908813-0.8466797-1.3665161-1.5316162-2.2840576-2.0164185l0.4592896-1.3374634   c0.0637207,0.0125732,0.1274414,0.0321655,0.1908569,0.0321655c0.4155273,0,0.8032227-0.2607422,0.9458008-0.6757808   c0.1791992-0.5224609-0.0986328-1.0913086-0.6210938-1.2705078l-1.6381836-0.5625   c-0.5234375-0.1806641-1.0913086,0.0986328-1.2705078,0.6210938c-0.1637573,0.477478,0.0655518,0.9794312,0.5031128,1.2014771   l-0.4555664,1.3267207c-1.0202026-0.1824341-2.06073-0.1168823-3.0518799,0.1913452l-0.6169434-1.2622681   c0.4064941-0.2744136,0.5725098-0.8008418,0.350769-1.2541499c-0.2416992-0.4960938-0.840332-0.7011719-1.3374023-0.4594727   l-1.5561523,0.7602539c-0.4960938,0.2421875-0.7021484,0.8413086-0.4594727,1.3374019   c0.1733398,0.3549805,0.5288086,0.5610352,0.8994141,0.5610352c0.1021118,0,0.2033081-0.0377808,0.3043213-0.0705566   l0.62323,1.2750854c-0.847168,0.5876465-1.5319824,1.3641968-2.0174561,2.2857056l-1.3395386-0.4597168   c0.0935669-0.4816895-0.1612549-0.9712524-0.638916-1.135498c-0.5209961-0.1801758-1.0913086,0.0986328-1.2705078,0.6210938   l-0.5629883,1.6386719c-0.1791992,0.5219727,0.0986328,1.0908203,0.6210938,1.2705078   c0.4800701,0.165843,0.9822617-0.0567999,1.2067871-0.5014648l1.3216553,0.4535522   c-0.1813965,1.0218506-0.1159668,2.0623779,0.1913452,3.0519409l-1.2622681,0.6170044   c-0.2740479-0.4066162-0.8009644-0.5718994-1.2543945-0.3510132c-0.496582,0.2426758-0.7021484,0.8413086-0.4594727,1.3374023   l0.7607422,1.5561523c0.2422619,0.4961262,0.8413239,0.7015038,1.3374023,0.4594727   c0.4538574-0.2218018,0.6463623-0.7388306,0.4940186-1.2052612l1.2711792-0.62146   c0.5878296,0.8475342,1.3643188,1.5326538,2.2857666,2.0181274l-0.4598389,1.3389282   c-0.4828491-0.0941162-0.9712524,0.161499-1.1350708,0.6390991c-0.1791992,0.5224609,0.0986328,1.0913086,0.6210938,1.2705078   l1.6381836,0.5625c0.5177841,0.1788712,1.0896912-0.0947456,1.2705078-0.6210938   C31.4242783,23.9937172,31.1949692,23.4917641,30.7574081,23.2697182z M33.8015366,11.3012733   c1.1411133,0.3959961,2.0595703,1.2075195,2.5883789,2.2866211c0.5249023,1.0648804,0.600708,2.276062,0.2176514,3.4140625   c-0.00177,0.0050049-0.0059814,0.0081787-0.0076904,0.0131836c-0.0018311,0.0053101-0.0004272,0.0106812-0.0021362,0.0159912   c-0.399231,1.1351929-1.2053223,2.0446777-2.2761841,2.5616455c-1.0760498,0.5234375-2.2940674,0.5995483-3.4223633,0.2190552   c-0.0036621-0.0012817-0.0060425-0.0043945-0.0097656-0.0056763c-0.003479-0.0012207-0.007019-0.0002441-0.010498-0.0014038   c-1.1378174-0.3983765-2.0488281-1.2052002-2.5666504-2.2774048c-0.5233765-1.0760498-0.5996094-2.2932129-0.2191162-3.4223022   c0.0012817-0.0036011,0.0040283-0.0061646,0.005249-0.0098267c0.0010376-0.0029907,0.0001831-0.0059814,0.0011597-0.0089722   c0.3981934-1.1385498,1.2054443-2.0505371,2.2776489-2.5681763c0.6274414-0.3046875,1.3007813-0.4584961,1.9755859-0.4584961   C32.8405991,11.0595741,33.3293686,11.1396523,33.8015366,11.3012733z"/><path d="M31.1799545,14.8208046c0.5522461,0,1.0498047-0.4980469,1.0498047-1.050293s-0.4975586-1.0498047-1.0498047-1.0498047   s-1.0498047,0.4975586-1.0498047,1.0498047S30.6277084,14.8208046,31.1799545,14.8208046z"/><path d="M34.4685287,15.9907265c0.5522461,0,1.0498047-0.4975586,1.0498047-1.0498047s-0.4975586-1.050293-1.0498047-1.050293   s-1.050293,0.4980469-1.050293,1.050293S33.9162827,15.9907265,34.4685287,15.9907265z"/><path d="M30.6316147,16.929203c0,0.5522461,0.4975586,1.050293,1.0498047,1.050293s1.050293-0.4980469,1.050293-1.050293   s-0.4980469-1.0498047-1.050293-1.0498047S30.6316147,16.3769569,30.6316147,16.929203z"/><path d="M40.2429428,37.8105507c-0.5522461,0-1.0498047,0.4980469-1.0498047,1.050293s0.4975586,1.0498047,1.0498047,1.0498047   s1.0498047-0.4975586,1.0498047-1.0498047S40.7951889,37.8105507,40.2429428,37.8105507z"/><path d="M43.8952866,37.198246c0-0.5522461-0.4975586-1.0498047-1.0498047-1.0498047s-1.050293,0.4975586-1.050293,1.0498047   s0.4980469,1.050293,1.050293,1.050293S43.8952866,37.7504921,43.8952866,37.198246z"/><circle cx="15.5139389" cy="37.8720741" r="1.0498047"/></g></svg>